<svg width="167" height="66" viewBox="0 0 167 66" fill="none" xmlns="http://www.w3.org/2000/svg">
<path d="M114.497 18.9415C113.156 18.9364 111.845 19.3049 110.742 19.9974C109.639 20.6899 108.796 21.673 108.327 22.8143L92.1761 62.1269C91.7061 63.2675 90.863 64.25 89.7601 64.9424C88.6572 65.6348 87.3474 66.0037 86.0068 65.9997H109.294C110.635 66.0047 111.946 65.6362 113.049 64.9437C114.152 64.2512 114.995 63.2681 115.464 62.1269L131.635 22.8143C132.105 21.6736 132.948 20.6911 134.051 19.9987C135.154 19.3064 136.463 18.9374 137.804 18.9415H114.497Z" fill="white" fill-opacity="0.45"/>
<path d="M137.803 18.9414C139.143 18.9374 140.453 19.3063 141.556 19.9987C142.659 20.6911 143.502 21.6736 143.972 22.8142L160.123 62.1268C160.592 63.268 161.435 64.2512 162.538 64.9437C163.641 65.6362 164.952 66.0047 166.293 65.9996H142.981C141.641 66.0037 140.331 65.6347 139.228 64.9424C138.125 64.25 137.282 63.2675 136.812 62.1268L120.665 22.8142C120.195 21.6736 119.352 20.6911 118.249 19.9987C117.146 19.3063 115.836 18.9374 114.495 18.9414H137.803Z" fill="white"/>
<path d="M47.1636 65.9993H52.4013C51.446 65.9888 50.4976 65.8499 49.5871 65.5869C48.8145 65.8601 47.9926 65.9999 47.1636 65.9993V65.9993Z" fill="#56BACA"/>
<path d="M30.0226 62.1273L38.0983 42.4764L32.2961 28.355H9.00854L22.8824 62.1273C23.1915 62.8836 23.6669 63.5748 24.2797 64.1586C24.8925 64.7425 25.6298 65.2068 26.4466 65.5232C27.266 65.2085 28.0059 64.745 28.6209 64.161C29.2359 63.577 29.7129 62.8849 30.0226 62.1273Z" fill="white"/>
<path d="M54.0749 47.7825C54.0749 47.7825 51.0831 45.0679 51.0831 42.9128C51.0831 42.1919 51.3983 41.5005 51.9594 40.9908C52.5205 40.481 53.2815 40.1946 54.0749 40.1946C54.8684 40.1946 55.6294 40.481 56.1905 40.9908C56.7516 41.5005 57.0668 42.1919 57.0668 42.9128C57.0629 45.0679 54.0749 47.7825 54.0749 47.7825V47.7825ZM75.6535 18.9408H57.5168C56.1765 18.936 54.8668 19.3047 53.7644 19.9972C52.6619 20.6897 51.8198 21.6727 51.3515 22.8136L40.6945 48.7722L35.2081 62.1262C35.1488 62.2661 35.0857 62.4059 35.0186 62.5422C34.4893 63.5771 33.6449 64.4526 32.5852 65.0652C31.5255 65.6778 30.2949 66.0018 29.0388 65.999H52.3382H52.2909C51.3729 65.9792 50.4627 65.8415 49.5871 65.5902C46.3229 64.6435 43.6982 62.1585 43.6982 58.8666C43.6982 58.6407 43.6982 58.4255 43.7179 58.2175C43.7179 58.1207 43.7179 58.0311 43.7416 57.9378C43.7653 57.8446 43.7613 57.7299 43.7731 57.6259C43.785 57.5219 43.8047 57.3928 43.8245 57.2673L43.86 57.0844C43.8837 56.9553 43.9113 56.8226 43.9429 56.6971C44.5823 54.1081 46.5124 52.5876 49.8003 50.5544C47.7281 48.1984 46.2479 46.2513 46.2479 43.9957C46.2479 39.9006 49.8792 37.7634 53.9881 37.7634C58.9219 37.7634 61.1244 39.7213 61.5901 42.0127C61.6533 42.3335 61.685 42.6587 61.6849 42.9845C61.6849 44.9137 60.8283 46.2728 59.3166 47.596C58.1969 48.5053 57.01 49.344 55.7643 50.1062L57.4891 52.0354L61.0415 56.0014L74.6825 22.7957C75.152 21.6548 75.995 20.6719 77.098 19.9795C78.201 19.2871 79.511 18.9183 80.8517 18.9229L75.6535 18.9408ZM51.7541 52.7705C50.9347 53.2556 50.2604 53.9176 49.7913 54.6973C49.3223 55.477 49.0731 56.3501 49.0661 57.2386C49.0713 58.6355 49.6834 59.9742 50.7692 60.9633C51.855 61.9525 53.3267 62.5122 54.8644 62.5207C56.4026 62.5134 57.8763 61.9585 58.9693 60.9751L55.4169 56.9696L51.7541 52.7705Z" fill="white" fill-opacity="0.45"/>
<path d="M80.8276 18.9409C82.1682 18.9368 83.478 19.3058 84.5809 19.9982C85.6838 20.6905 86.5269 21.6731 86.9969 22.8137L103.144 62.1263C103.615 63.2698 104.462 64.2544 105.568 64.947C106.675 65.6396 107.989 66.0068 109.333 65.9991H86.0456C84.7051 66.0032 83.3953 65.6342 82.2924 64.9418C81.1895 64.2495 80.3464 63.2669 79.8764 62.1263L63.6856 22.8137C63.2166 21.6725 62.3737 20.6894 61.2706 19.9969C60.1675 19.3044 58.8572 18.9358 57.5164 18.9409H80.8276ZM22.135 3.61821C22.135 3.61821 21.4956 1.74635 19.8102 0.806835C18.9115 0.28849 17.871 0.00900431 16.8065 0C15.8802 0.0139315 14.9703 0.225189 14.1502 0.61678L0 6.47978L5.13116 18.9409H28.4187L22.135 3.61821Z" fill="white"/>
</svg>
