<svg width="1115" height="1176" viewBox="0 0 1115 1176" fill="none" xmlns="http://www.w3.org/2000/svg">
<path d="M538.771 720.936C538.771 720.936 474.387 653.125 474.387 599.287C474.387 581.279 481.17 564.008 493.245 551.274C505.319 538.54 521.695 531.386 538.771 531.386C555.847 531.386 572.223 538.54 584.297 551.274C596.372 564.008 603.155 581.279 603.155 599.287C603.07 653.125 538.771 720.936 538.771 720.936V720.936ZM1003.13 0.448937H612.838C583.995 0.327679 555.811 9.53791 532.087 26.8374C508.363 44.1369 490.24 68.6933 480.163 97.1947L250.826 745.66L132.76 1079.25C131.486 1082.75 130.127 1086.24 128.683 1089.65C117.294 1115.5 99.1221 1137.37 76.3176 1152.67C53.513 1167.97 27.0297 1176.07 0 1176H501.398H500.378C480.624 1175.5 461.036 1172.07 442.195 1165.79C371.95 1142.14 315.465 1080.06 315.465 997.826C315.465 992.183 315.465 986.808 315.89 981.612C315.89 979.194 315.89 976.954 316.399 974.625C316.909 972.296 316.824 969.429 317.079 966.832C317.334 964.234 317.758 961.009 318.183 957.874L318.948 953.305C319.457 950.08 320.052 946.766 320.731 943.631C334.492 878.954 376.027 840.973 446.781 790.181C402.188 731.327 370.336 682.686 370.336 626.34C370.336 524.041 448.48 470.651 536.902 470.651C643.077 470.651 690.473 519.562 700.496 576.803C701.855 584.815 702.538 592.939 702.534 601.079C702.534 649.273 684.102 683.223 651.57 716.278C627.473 738.993 601.932 759.944 575.125 778.984L612.243 827.177L688.689 926.252L982.24 96.7468C992.343 68.2456 1010.48 43.6934 1034.22 26.3961C1057.96 9.09879 1086.15 -0.113008 1115 0.00104643L1003.13 0.448937ZM488.826 845.541C471.194 857.66 456.682 874.196 446.588 893.673C436.494 913.15 431.133 934.961 430.983 957.157C431.094 992.054 444.265 1025.49 467.631 1050.2C490.998 1074.91 522.669 1088.9 555.759 1089.11C588.861 1088.93 620.576 1075.06 644.096 1050.5L567.65 950.439L488.826 845.541Z" fill="url(#paint0_linear_766_3308)"/>
<defs>
<linearGradient id="paint0_linear_766_3308" x1="646.819" y1="-8.69572e-06" x2="389.212" y2="1288.2" gradientUnits="userSpaceOnUse">
<stop stop-color="#0099A8"/>
<stop offset="1" stop-color="#0033A1"/>
</linearGradient>
</defs>
</svg>
